<?xml version="1.0" standalone="yes"?>
<svg xmlns="http://www.w3.org/2000/svg" width="1024" height="1024">
<path style="fill:#272726; stroke:none;" d="M0 0L0 1024L1024 1024L1024 0L0 0z"/>
<path style="fill:#c4884a; stroke:none;" d="M482 108.424C470.068 109.991 457.894 110.343 446 112.464C388.854 122.653 335.035 141.874 287 175.026C229.137 214.959 179.947 270.576 149.258 334C73.6128 490.338 108.444 689.126 236 808.089C267.266 837.249 301.979 862.777 341 880.691C414.722 914.538 496.063 922.917 576 912.714C624.419 906.534 671.003 888.883 713 864.425C776.669 827.346 830.458 772.993 865.691 708C943.414 564.632 928.025 376.752 821.208 252C798.029 224.929 772.723 200.009 743 180C704.067 153.792 661.667 134.577 616 123.498C602.815 120.299 590.376 114.404 577 111.666C557.494 107.672 536.814 108 517 108C505.508 108 493.401 106.927 482 108.424z"/>
<path style="fill:#f6eed4; stroke:none;" d="M494 135.424C469.168 138.685 444.475 139.312 420 145.756C322.493 171.431 233.906 238.576 184.861 327C126.562 432.109 121.071 561.575 171.309 671C187.832 706.991 210.632 740.669 237.17 770C263.847 799.485 297.344 824.525 332 843.86C363.44 861.402 397.694 874.971 433 882.286C472.334 890.435 513.051 893.508 553 888.714C631.199 879.332 705.463 845.774 764 792.83C837.348 726.491 882.638 629.725 886.961 531C889.938 462.998 875.159 393.026 842.691 333C792.515 240.234 699.587 166.771 596 144.338C575.814 139.966 555.586 137.42 535 135.911C521.653 134.933 507.35 133.671 494 135.424z"/>
<path style="fill:#c4884a; stroke:none;" d="M435 181C441.012 182.378 446.819 184.495 453 185C437.413 192.63 418.348 189.117 402 193.789C390.304 197.131 379.94 207.293 370 214C372.646 214.815 375.226 214.213 378 214C358.622 227.246 327.099 229.158 315 252C319.44 251.402 323.644 249.999 328 249C309.906 267.475 293.904 286.967 278.86 308C271.79 317.883 264.311 331.401 268 344C270.062 341.272 271.099 338.294 272 335C274.056 343.139 270.667 353.611 270.09 362C269.107 376.266 265.639 390.772 265.259 405C265.083 411.617 266.999 418.289 267 425L273 418C275.014 433.938 275.789 449.999 276.91 466C277.382 472.724 276.892 480.452 278.394 487C279.366 491.238 282.635 494.164 284.432 498C286.687 502.814 287.638 508.866 289.091 514C291.399 522.154 290.94 531.222 294.554 539C298.062 546.551 305.714 550.718 309.601 558C317.507 572.813 321.635 589.598 330.352 603.996C333.946 609.933 340.593 613.117 344.258 619C347.67 624.476 346.771 631.864 347.039 638C347.301 643.978 348.391 649.97 346.686 655.906C345.545 659.879 341.417 661.129 338 662.612C333.38 664.616 328.081 667.092 324.954 671.185C319.238 678.67 316.014 687.85 311.485 696C307.91 702.433 302.339 707.14 298.015 713C293.434 719.207 290.004 727.266 284.737 732.812C278.842 739.019 269.179 738.553 263 744C258.599 739.611 253.317 735.78 249.379 730.985C243.264 723.54 238.714 714.699 232.87 707C228.483 701.222 223.493 692.317 217 689C218.787 695.202 222.43 699.757 226 705C216.444 695.215 209.241 681.589 204 669C209.032 672.706 211.968 678.294 217 682C211.991 668.237 202.142 656.633 196.761 643C192.03 631.014 188.661 618.19 184.308 606C180.23 594.583 174.969 582.897 172.515 571C168.496 551.516 168.615 530.648 167.957 511C167.761 505.17 165.167 499.841 165.015 494C164.581 477.344 167.925 461.319 171 445C171.722 447.418 171.948 449.472 172 452C173.672 448.521 173.701 444.742 174.511 441C176.239 433.02 178.353 425.185 179 417L175 421C177.669 400.336 184.141 380.155 192 361C191.578 365.576 189.413 369.632 188.029 374C185.785 381.08 184.319 388.577 184 396C191.139 388.931 194.89 375.277 198.6 366C205.783 348.044 213.169 330.346 223.692 314C230.489 303.441 238.574 294.063 246.015 284C249.214 279.674 253.521 276.269 255 271C253.339 271.613 252.517 272.043 251 273C257.294 262.112 268.681 253.934 278 245.714C289.541 235.535 300.014 224.147 312 214.461C319.915 208.065 329.013 203.493 335 195C313.605 201.163 294.525 218.726 278 232.869C270.109 239.622 261.526 245.817 254.17 253.17C220.252 287.073 194.42 328.109 177.947 373C171.515 390.527 166.302 408.091 161.219 426C156.342 443.184 150.88 459.044 149.17 477C147.412 495.454 149.652 514.621 150.91 533C154.632 587.352 170.423 638.163 196.694 686C210.097 710.404 224.408 733.256 243.17 754C273.223 787.228 310.1 813.297 350 833.247C360.818 838.656 372.012 842.877 383 847.866C404.293 857.533 425.172 867.117 449 869C442.773 864.562 431.542 863.016 424 862C428.095 861.113 431.884 862.122 436 862.728C445.053 864.063 453.951 866.172 463 867.576C486.192 871.173 510.52 872.989 534 871.961C591.529 869.442 643.995 848.768 694 821.306C718.803 807.684 744.26 792.313 764.961 772.829C771.322 766.842 776.647 759.655 782.275 753C797.129 735.434 809.874 717.783 821.603 698C840.656 665.866 858.552 630.052 865.54 593C866.898 585.8 865.952 579.119 866.518 572C866.853 567.795 868.707 564.08 869.522 560C870.52 554.998 870.671 549.106 870.896 544C871.244 536.084 869.279 527.934 869.274 520C869.271 514.525 872.181 509.682 871.96 504C871.338 488.022 867.92 472.622 865.184 457.015C864.415 452.623 866.188 448.51 865.384 444C862.475 427.674 856.357 412.689 851.344 397C843.51 372.48 834.931 346.441 822.127 324C813.722 309.268 803.43 296.575 792.17 284C785.131 276.139 780.051 266.713 772.829 259.039C760.475 245.912 745.231 235.969 731 225.116C722.139 218.358 712.885 209.203 702 206C706.024 214.451 716.33 219.695 723 226.039C741.387 243.525 760.996 259.106 776.999 279C783.76 287.404 791.086 296.433 794 307C791.656 303.716 789.383 301.217 786 299C787.849 304.803 791.728 309.863 794.95 315C799.304 321.943 803.319 330.068 810 335L806 323C813.18 330.524 819.109 340.964 822 351C819.285 347.999 816.559 345.92 813 344C819.511 359.639 828.59 374.093 834.575 390C838.849 401.361 840.465 413.305 843.375 425C847.338 440.927 852.043 456.767 854.675 473C856.94 486.969 853.841 501.958 854.004 516C854.073 521.948 856.42 527.178 857 533L856 529L854 529C854.274 542.273 857.118 555.691 855.83 569C854.907 578.543 853.002 588.813 850.279 598C848.307 604.654 845.176 611.166 844 618C842.62 611.55 848.168 604.211 843 599C840.139 620.249 828.562 638.662 823 659C824.797 659 824.522 658.986 826 658C822.961 665.26 817.931 670.565 813.598 677C806.8 687.097 800.392 697.233 793.035 707C783.114 720.172 774.861 734.701 763.826 746.999C755.875 755.862 745.342 763.301 736 770.661C727.945 777.008 719.546 782.663 711 788.333C707.182 790.865 702.526 794.901 698 795.948C694.363 796.789 690.278 794.307 687 793C679.968 790.196 672.511 787.109 665 786C666.458 787.081 667.248 787.436 669 788C663.642 788.344 658.971 785.624 654 783.864C648.833 782.035 642.604 781.418 638.015 778.297C631.212 773.671 626.872 765.468 622.076 759C618.383 754.019 613.565 750.06 610 745C619.76 742.742 629.538 739.085 639 735.786C643.392 734.254 648.217 733.428 652 730.581C662.833 722.429 664.122 711.076 667.721 699C669.418 693.306 672.118 687.891 673 682C676.975 685.63 679.875 690.242 684.001 693.79C689.931 698.89 697.644 702.495 705 705C703.33 700.594 700.462 696.989 698 693C708.798 701.299 728.423 710.534 742 704C736.678 699.747 728.262 696.924 722 694C730.015 692.815 738.584 698.109 747 697.946C769.316 697.514 790.116 681.966 802 664C790.769 665.15 782.817 673.901 771 674C777.952 670.294 785.904 667.897 791.961 662.671C806.171 650.411 811.328 630.924 808 613C804.803 618.226 803.989 624.058 800 629C800.611 621.262 803.75 609.121 796 604C795.71 617.975 786.613 628.765 773 632C775.814 628.575 777.768 625.268 779 621C773.703 622.924 767.942 627.031 762 625.552C753.781 623.505 752.047 614.385 748.673 608C743.504 598.216 735.236 589.255 727 582C730.875 583.322 734.381 585.104 738 587L737 584C738.186 585.186 738.584 585.528 740 586C731.458 573.975 715.51 565.241 702 560C703.355 562.391 705.029 564.059 707 566C702.659 564.193 693.519 561.467 691.618 556.787C689.862 552.464 692.177 544.559 692.714 540C693.954 529.493 695.095 517.552 693.816 507C692.392 495.26 682.536 483.009 684.343 471C685.714 461.89 692.457 453.826 695 445L697 445L700 452C703.669 447.409 705.066 440.523 707.046 435C707.994 432.357 709.023 429.809 708.113 427C705.483 418.878 697.985 411.846 694.323 404C689.656 394 687.475 382.732 685.211 372C684.334 367.844 683.791 364.132 685.093 360C686.421 355.789 690.092 350.518 689.441 346C688.599 340.161 682.714 335.991 681.479 330C679.041 318.17 682.423 304.21 676.697 293C672.635 285.048 662.672 280.209 659.349 272C658.048 268.786 658.995 264.404 659 261C659.011 253.82 658.723 246.921 656.556 240C654.191 232.446 647.058 226.272 642.374 220C636.178 211.703 629.624 198.76 620.829 193.086C613.993 188.674 602.888 186.825 595 185L599 196C590.432 192.303 584.119 185.393 576 181.046C569.906 177.784 562.587 176.256 556 174.28C547.188 171.636 538.283 168.513 529 168.104C512.182 167.363 494.925 175.152 478 175.896C467.694 176.349 457.402 175.041 447 176.424C442.413 177.034 437.747 176.859 435 181z"/>
<path style="fill:#f6eed4; stroke:none;" d="M418 297C421.412 296.218 424.732 295.251 428 294C420.55 309.751 408.293 324.274 403 341C405.704 340.383 407.63 339.456 410 338C406.835 347.546 398.075 354.351 395 364C401.091 360.19 405.945 355.055 411 350C409.088 357.935 406.619 365.258 404 373C407.766 371.246 410.61 368.377 414 366C413.974 375.193 409.371 382.33 407 391L414 386L410 395L419 391C414.342 407.169 404.477 421.597 400 438C403.117 434.916 404.792 431.194 406 427C406.144 432.113 403.746 436.933 403 442C404.3 441.35 404 441.853 404 440C408.289 451.452 402.098 462.186 398.344 473C397.06 476.698 396.265 482.636 393.298 485.393C386.981 491.261 379.864 480.853 378 476C377.378 477.943 377.564 478.949 378 481C374.812 476.692 374.005 472.184 373 467C371.439 469.603 371.138 471.978 371 475C366.95 469.581 366.039 460.218 359.945 456.904C352.686 452.958 340.41 445.063 332 445.29C328.828 445.376 325.797 446.909 323 448.258C319.229 450.078 315.177 451.866 312.394 455.105C304.699 464.058 304.931 480.967 306.286 492C308.525 510.227 312.318 529.504 326.289 542.532C331.605 547.49 338.85 550.614 345 554.424C350.117 557.595 357.946 564.914 364 565.361C370.659 565.853 379.001 561.461 385 559C385 572.827 388.41 586.257 389 600C379.205 593.302 371.021 583.757 360 579C360.194 602.425 360.486 626.755 363.576 650C364.385 656.089 362.315 664.154 364.742 669.826C366.609 674.189 372.307 677.076 376 679.709C384.382 685.685 392.806 691.668 401 697.899C410.251 704.933 419.097 712.41 429 718.575C447.8 730.279 468.233 739.364 488 749.247C497.226 753.86 506.6 758.068 516 762.306C521.825 764.932 527.635 768.046 534 769C530.252 761.477 523.873 755.873 518 750C523.708 751.178 529.134 752.878 535 753C530.511 748.837 524.329 747.56 519 744.691C508.657 739.12 498.162 730.557 487 727C493.584 725.054 501.166 726 508 726C521.333 726 534.843 725.557 548 728C543.667 723.595 538.272 721.08 533 718C545.285 713.626 560.741 723.976 573 726.485C586.82 729.314 604.234 726.178 618 723.92C623.497 723.018 629.92 722.943 634.985 720.428C641.309 717.287 644.274 708.969 647.247 703C648.471 700.542 650.219 697.837 650.219 695C650.219 691.506 647.73 688.041 646.258 685C644.899 682.191 643.765 676.966 640.606 675.643C637.705 674.427 633.103 675.959 630 675.996C624.002 676.068 617.816 675.512 612 677.329C603.251 680.061 595.515 686.455 587 690C590.262 683.103 595.037 677.078 598 670C589.058 676.299 583.094 685.64 574.996 692.815C569.566 697.626 562.663 701.225 556 704C560.263 699.546 564.993 694.916 567 689C555.34 696.285 543.55 708.688 529 709C529.957 707.483 530.387 706.661 531 705C524.563 707.192 518.635 710.438 512 712.105C498.724 715.44 486.43 714.577 473 714L473 712C477.329 711.802 481.046 710.75 485 709C480.965 707.307 476.319 708.224 472 707.714C464.288 706.804 456.693 704.628 449 704L449 702C453.23 702.532 456.777 702.772 461 702C455.486 698.233 446.457 699.157 440 697.1C429.704 693.819 422.919 686.92 416 679C424.275 682.211 432.262 686.173 441 688C434.676 681.1 425.722 676.751 419.174 669.911C412.37 662.803 408.093 653.321 403 645L415 653C408.874 638.286 399.177 620.169 406 604C409.394 611.501 413.379 619.89 420 625L418 617C428.453 628.347 438.06 635.792 453 640C449.848 634.634 443.85 631.049 440 626C444.867 627.687 449.122 630.635 454 632.25C463.086 635.259 472.093 633.829 481 631C477.033 628.173 471.632 627.481 467 626C472.144 624.476 477.706 624.539 483 623.54C495.451 621.191 509.448 615.328 516 604L503 608C507.627 601.486 514.533 597.754 521 593.283C537.899 581.6 556.875 572.418 576 565C573.219 568.653 569.942 571.829 568 576C579.317 569.559 589.696 560.965 603 559C598.294 556.738 592.928 557.377 588 555.775C581.402 553.631 576.989 548 574 542L572 542C563.188 553.888 552.504 562.869 541 572C547.43 558.406 557.517 545.875 566.651 534C572.768 526.048 577.936 518.905 588 516C581.343 523.836 576.34 534.943 584.39 543.811C586.104 545.699 588.409 547.34 591 547.664C596.024 548.291 600.715 543.33 605 541.323C616.052 536.149 629.262 537.952 635 550L615 550C619.567 556.082 631.677 557.227 638 553.633C641.686 551.537 644.293 547.998 648 545.988C655.512 541.916 663.528 544.227 664.811 533C665.81 524.253 659.96 516.421 656.247 509C649.668 495.851 644.438 482.063 637.741 469C634.536 462.748 628.128 456.088 627.229 449C626.376 442.271 631.787 430.419 635.818 425.148C638.655 421.438 642.1 422.053 645 425C654.116 423.282 662.214 419.524 671 416.671C675.624 415.17 680.447 414.706 685 413C682.946 405.489 679.277 398.693 677.665 391C674.484 375.815 673.399 359.501 667.547 345C658.94 323.672 645.948 306.358 634 287C627.658 288.171 621.295 288.601 615 290.13C611.365 291.012 606.761 293.04 603 292.099C592.923 289.576 586.361 278.049 576 275C577.516 277.963 578.91 280.853 580 284C568.382 277.076 555.766 275.661 543 271.961C534.588 269.522 527.146 264.965 519 262C522.789 266.423 528.376 268.307 532 273C517.285 269.596 500.446 260.864 485 262.688C480.217 263.252 475.419 265.804 471 267.603C462.996 270.862 454.949 274.036 447 277.427C436.389 281.955 423.235 285.773 418 297M250 273L251 274L250 273M794 307L795 308L794 307M273.333 333.667C273.278 333.722 273.222 334.778 273.667 334.333C273.722 334.278 273.778 333.222 273.333 333.667z"/>
<path style="fill:#272726; stroke:none;" d="M267 343L267 346C267.696 344.446 267.696 344.554 267 343z"/>
<path style="fill:#c4884a; stroke:none;" d="M266 345L266 349C267.073 347.118 267.084 346.863 266 345z"/>
<path style="fill:#f6eed4; stroke:none;" d="M822 351L823 355C823.393 353.076 823.146 352.64 822 351M193 360L194 361L193 360z"/>
<path style="fill:#c4884a; stroke:none;" d="M532 408L534 413C528.59 414.477 523.446 416.864 518 418.24C506.081 421.251 491.286 422.678 485 435L489 435C485.073 437.949 481.964 440.403 480 445C487.507 444.938 495.662 444.127 503 442.486C509.074 441.128 514.75 438.545 521 438C512.974 443.835 502.655 452.855 493 455.501C487.852 456.912 482.266 455.746 477 457C480.256 459.263 484.085 459.688 488 460L480 464C485.264 466.209 495.493 465.925 501 464.363C504.756 463.297 508.019 460.587 512 460.306C519.229 459.797 525.819 465.944 533 466.816C543.232 468.057 553.744 465.028 564 465C553.013 472.486 536.141 468.965 527 479C535.669 482.252 543.064 481.074 552 481L545 492C555.352 489.012 564.976 481.777 574 476.053C577.569 473.789 582.799 471.634 584.972 467.816C586.568 465.011 586 461.103 586 458C589.152 457.911 591.22 457.49 594 456C596.198 460.647 598.897 466.319 604 468C602.895 463.359 602.856 458.618 601.572 454C600.911 451.626 599.413 448.663 600.353 446.184C601.755 442.49 606.893 440.82 609.61 438.24C615.826 432.34 618.936 422.225 617 414C613.329 416.63 610.383 420.009 607 423L609 416C603.869 416.451 599.185 419.106 594 418.895C581.016 418.367 569.369 412.566 557 409.598C549.504 407.799 539.737 408.064 532 408M530 409L531 410L530 409z"/>
<path style="fill:#272726; stroke:none;" d="M522 414C525.964 414.33 530.795 412.296 534 410C529.379 409.432 525.857 411.566 522 414z"/>
<path style="fill:#c4884a; stroke:none;" d="M528 410L529 411L528 410M524 412L525 413L524 412M528.667 412.333C528.222 412.778 529.278 412.722 529.333 412.667C529.778 412.222 528.722 412.278 528.667 412.333M522 413L523 414L522 413M521.333 414.667C521.278 414.722 521.222 415.778 521.667 415.333C521.722 415.278 521.778 414.222 521.333 414.667M523 414L524 415L523 414M519 415L518 417L520 417C520 415.147 520.3 415.65 519 415z"/>
<path style="fill:#272726; stroke:none;" d="M520 415L521 416L520 415z"/>
<path style="fill:#f6eed4; stroke:none;" d="M485.667 441.333C485.222 441.778 486.278 441.722 486.333 441.667C486.778 441.222 485.722 441.278 485.667 441.333M522 455L522 457C527.312 458.729 532.553 460.74 538 462L533 451C529.109 451.901 525.534 453.138 522 455z"/>
<path style="fill:#c4884a; stroke:none;" d="M317 508C319.64 506.416 318.789 505.447 321 506C321.189 496.841 321.855 482.089 328.761 475.287C332.049 472.048 334.875 475.235 338 476.999C343.33 480.009 347.745 479.446 350 486C345.28 487.093 339.769 488.449 336.419 492.214C329.955 499.477 332.854 514.807 340.094 520.566C345.113 524.559 351.027 520.397 355.83 523.618C360.326 526.632 362.644 531.961 367.999 533.975C370.169 534.791 373.193 535.006 374.393 532.566C377.97 525.292 366.845 519.673 364.746 513.999C363.285 510.049 365.153 505.873 365.985 502C366.918 497.66 367 493.418 367 489C363.356 490.203 362.154 492.425 361 496C355.159 482.807 352.203 470.761 340 461.303C330.297 453.783 316.379 462.245 313.558 473C310.702 483.888 316.134 497.045 317 508z"/>
<path style="fill:#272726; stroke:none;" d="M319 505C318.52 507.36 318.481 508.663 319 511C319.951 508.715 319.951 507.285 319 505z"/>
<path style="fill:#c4884a; stroke:none;" d="M326 526C329.206 535.428 336.886 537.994 346 538C342.736 531.364 332.838 527.97 326 526z"/>
<path style="fill:#f6eed4; stroke:none;" d="M683 572C686.213 578.342 695.603 586.017 702 589C696.896 581.536 690.964 576.239 683 572M663 574C665.82 579.379 669.359 582.87 671 589C668.958 588.105 667.172 587.464 665 587L666 591C659.293 586.294 653.824 579.966 646 577C654.794 589.633 665.281 599.885 672 614C674.741 607.28 670.124 597.529 668 591C678.747 594.163 683.651 602.932 689 612C692.94 602.336 680.764 593.867 679 585C685.273 587.767 689.342 593.247 695 597C692.572 591.372 689.494 585.987 684 583L685 586C677.827 581.754 671.098 576.333 663 574M625 576L625 607C630.149 598.417 629.661 584.563 625 576z"/>
<path style="fill:#c4884a; stroke:none;" d="M848 576C848.501 578.686 848.883 581.27 849 584C850.223 581.08 850.476 578.163 848 576z"/>
<path style="fill:#272726; stroke:none;" d="M848 578C847.046 585.389 843.147 593.664 845 601C848.372 595.407 850.58 584.148 848 578z"/>
<path style="fill:#c4884a; stroke:none;" d="M847.333 580.667C847.278 580.722 847.222 581.778 847.667 581.333C847.722 581.278 847.778 580.222 847.333 580.667z"/>
<path style="fill:#f6eed4; stroke:none;" d="M570 618C574.038 613.127 576.422 606.651 579.247 601C582.189 595.116 586.019 589.26 588 583C576.235 588.533 571.602 606.102 570 618z"/>
<path style="fill:#272726; stroke:none;" d="M737 584C738.155 586.133 738.882 586.782 741 588C739.67 586.247 738.753 585.33 737 584z"/>
<path style="fill:#c4884a; stroke:none;" d="M846 584L846 587C846.696 585.446 846.696 585.554 846 584M739 587L740 588L739 587z"/>
<path style="fill:#f6eed4; stroke:none;" d="M611 588C604.548 604.209 599.641 620.812 593 637C603.044 627.794 602.666 613.17 611 603C612.398 608.871 611.253 614.097 611 620C618.813 614.101 620.806 600.354 621 591C617.909 593.32 616.997 597.346 616 601C614.161 596.669 613.837 591.811 611 588z"/>
<path style="fill:#c4884a; stroke:none;" d="M741 588L742 589L741 588M848.333 588.667C848.278 588.722 848.222 589.778 848.667 589.333C848.722 589.278 848.778 588.222 848.333 588.667z"/>
<path style="fill:#f6eed4; stroke:none;" d="M634 589L630 617C635.384 611.428 638.563 595.68 634 589M713 590C715.764 599.596 721.832 607.626 727 616C728.875 607.07 718.997 595.564 713 590z"/>
<path style="fill:#c4884a; stroke:none;" d="M845 590L846 591L845 590M847 593L847 596C847.696 594.446 847.696 594.554 847 593z"/>
<path style="fill:#f6eed4; stroke:none;" d="M652 595C653.182 603.041 655.831 610.801 656 619C659.793 611.108 658.207 601.142 652 595z"/>
<path style="fill:#272726; stroke:none;" d="M616 596L615 600C616.146 598.359 616.393 597.924 616 596z"/>
<path style="fill:#f6eed4; stroke:none;" d="M592 597C589.578 602.787 586.472 609.575 582 614L582 610C577.134 612.944 575.926 619.923 573.938 625C571.213 631.96 566.556 637.976 564 645C569.442 640.244 572.705 633.823 576.86 628C580.896 622.345 585.996 617.205 589.179 611C591.252 606.96 593.583 601.424 592 597z"/>
<path style="fill:#c4884a; stroke:none;" d="M616 598L617 599L616 598M846 598L847 599L846 598M615 600L616 601L615 600z"/>
<path style="fill:#f6eed4; stroke:none;" d="M550 602C542.84 609.504 536.919 619.474 536 630C540.913 624.87 544.135 618.329 547.244 612C548.821 608.791 550.74 605.577 550 602z"/>
<path style="fill:#c4884a; stroke:none;" d="M504 605L503 607C504.263 606.029 504.392 606.306 504 605z"/>
<path style="fill:#272726; stroke:none;" d="M505 605C503.814 606.186 503.472 606.584 503 608C504.752 607.436 505.542 607.081 507 606L505 605z"/>
<path style="fill:#c4884a; stroke:none;" d="M505 607L506 608L505 607z"/>
<path style="fill:#f6eed4; stroke:none;" d="M177 609C178.942 623.407 185.482 637.717 193 650C193.137 645.73 190.728 640.985 189.189 637C185.801 628.227 183.348 616.031 177 609z"/>
<path style="fill:#272726; stroke:none;" d="M583.333 611.667C583.278 611.722 583.222 612.778 583.667 612.333C583.722 612.278 583.778 611.222 583.333 611.667z"/>
<path style="fill:#f6eed4; stroke:none;" d="M561 615C557.628 622.824 552.954 629.56 551 638C555.463 633.584 562.771 621.385 561 615M486 644C497.747 648.928 513.88 637.176 520 628C514.602 629.708 509.991 633.06 505 635.68C498.926 638.867 492.344 641.397 486 644M550 639C542.982 644.763 535.558 652.115 531 660C537.756 657.033 551.231 647.494 550 639M422 644C425.427 651.287 433.177 655.313 441 656C436.155 651.103 428.24 646.952 422 644M504 661C514.367 665.045 528.674 651.557 534 644C523.354 648.035 514.667 656.558 504 661M448.667 668.333C448.222 668.778 449.278 668.722 449.333 668.667C449.778 668.222 448.722 668.278 448.667 668.333M451 669C459.15 673.914 470.17 671.64 479 670C471.157 665.302 459.625 668.822 451 669z"/>
<path style="fill:#272726; stroke:none;" d="M316 673L316 676C317.015 674.861 317.309 674.388 318 673L316 673z"/>
<path style="fill:#f6eed4; stroke:none;" d="M350 674C348.264 680.71 345.341 690.156 347.564 697C349.275 702.267 354.454 706.945 358.05 711C363.843 717.531 369.152 724.469 374.95 731C387.691 745.354 400.141 761.302 415 773.536C430.695 786.458 449.116 796.077 466 807.333C476.734 814.489 488.201 820.33 499 827.345C502.657 829.721 508.35 835.385 512.985 835.017C517.319 834.673 521.016 828.977 523.579 825.999C531.805 816.444 543.724 806.518 549 795C521.428 783.688 495.964 768.353 470 753.86C450.371 742.904 429.673 733.008 411 720.481C397.277 711.275 383.706 700.293 371 689.714C364.623 684.406 357.935 676.697 350 674z"/>
<path style="fill:#c4884a; stroke:none;" d="M315.333 675.667C315.278 675.722 315.222 676.778 315.667 676.333C315.722 676.278 315.778 675.222 315.333 675.667z"/>
<path style="fill:#f6eed4; stroke:none;" d="M475 686C484.199 689.86 494.241 684.744 502 680C498.3 678.906 494.58 680.818 491 681.999C485.741 683.735 480.432 684.947 475 686z"/>
<path style="fill:#c4884a; stroke:none;" d="M274 727C273.869 728.641 273.631 729.456 273 731C274.608 729.55 275.064 728.948 276 727L274 727M272 728L273 729L272 728z"/>
<path style="fill:#272726; stroke:none;" d="M269 730C271.814 730.912 272.983 730.074 275 728L269 730z"/>
<path style="fill:#c4884a; stroke:none;" d="M270 729L271 730L270 729M264 732C266.433 732.735 267.819 732.305 270 731C267.685 730.93 266.221 731.26 264 732z"/>
<path style="fill:#272726; stroke:none;" d="M263.667 733.333C263.222 733.778 264.278 733.722 264.333 733.667C264.778 733.222 263.722 733.278 263.667 733.333z"/>
<path style="fill:#f6eed4; stroke:none;" d="M595 762C584.002 779.582 563.937 789.334 554 808C559.738 805.781 564.154 801.353 569 797.654C574.564 793.407 580.549 789.791 586 785.388C589.211 782.795 594.753 779.741 596.397 775.816C598.025 771.927 597 766.155 597 762L595 762M338 803C345.529 811.614 358.043 818.003 369 821C362.563 812.798 347.515 807.1 338 803z"/>
<path style="fill:#c4884a; stroke:none;" d="M523 807L526 805C524.007 804.301 523.847 805.006 523 807z"/>
<path style="fill:#272726; stroke:none;" d="M524 805L525 806L524 805z"/>
<path style="fill:#f6eed4; stroke:none;" d="M602 837L601 839L603 839C603 837.147 603.3 837.65 602 837M422.667 860.333C422.222 860.778 423.278 860.722 423.333 860.667C423.778 860.222 422.722 860.278 422.667 860.333z"/>
<path style="fill:#c4884a; stroke:none;" d="M967 944C963.135 955.333 955.333 963.135 944 967L944 969C956.619 973.304 961.039 981.655 968 992C971.422 986.914 973.502 981.474 978.04 977.093C982.198 973.08 987.317 971.151 992 968C981.655 961.039 973.304 956.619 969 944L967 944z"/>
</svg>
